<mxfile host="app.diagrams.net" modified="2021-06-03T05:53:48.817Z" agent="5.0 (Macintosh)" etag="mmp8qLEmi72IMO0XmG7n" version="14.7.0" type="github">
  <diagram name="Page-1" id="e3a06f82-3646-2815-327d-82caf3d4e204">
    <mxGraphModel dx="1061" dy="701" grid="1" gridSize="10" guides="1" tooltips="1" connect="1" arrows="1" fold="1" page="1" pageScale="1.5" pageWidth="1169" pageHeight="826" background="none" math="0" shadow="0">
      <root>
        <mxCell id="0" style=";html=1;" />
        <mxCell id="1" style=";html=1;" parent="0" />
        <mxCell id="6a7d8f32e03d9370-61" value="Outside Networks" style="whiteSpace=wrap;html=1;fillColor=#f8cecc;fontSize=14;strokeColor=none;verticalAlign=top;" parent="1" vertex="1">
          <mxGeometry x="1084" y="296" width="493" height="360" as="geometry" />
        </mxCell>
        <mxCell id="6a7d8f32e03d9370-59" value="Citrix XenApp Server Farm&lt;div&gt;with firewalls&lt;/div&gt;" style="whiteSpace=wrap;html=1;fillColor=#EDEDED;fontSize=14;strokeColor=none;verticalAlign=top;" parent="1" vertex="1">
          <mxGeometry x="1297" y="70" width="280" height="1010" as="geometry" />
        </mxCell>
        <mxCell id="6a7d8f32e03d9370-58" value="&lt;b&gt;Curl and test_webhook.py&lt;/b&gt;" style="whiteSpace=wrap;html=1;fillColor=#dae8fc;fontSize=14;strokeColor=none;verticalAlign=top;" parent="1" vertex="1">
          <mxGeometry x="80" y="130" width="500" height="190" as="geometry" />
        </mxCell>
        <mxCell id="6a7d8f32e03d9370-1" value="Mac Book" style="verticalLabelPosition=bottom;aspect=fixed;html=1;verticalAlign=top;strokeColor=none;shape=mxgraph.citrix.laptop_2;fillColor=#66B2FF;gradientColor=#0066CC;fontSize=14;" parent="1" vertex="1">
          <mxGeometry x="419.9999999999999" y="190" width="116" height="86.5" as="geometry" />
        </mxCell>
        <mxCell id="6a7d8f32e03d9370-15" value="Flask Webhook Receiver&lt;br&gt;Ubuntu" style="verticalLabelPosition=top;aspect=fixed;html=1;verticalAlign=bottom;strokeColor=none;shape=mxgraph.citrix.cache_server;fillColor=#66B2FF;gradientColor=#0066CC;fontSize=14;labelPosition=center;align=center;" parent="1" vertex="1">
          <mxGeometry x="140" y="198.5" width="71" height="97.5" as="geometry" />
        </mxCell>
        <mxCell id="Ge-NIx9A7oF9qXeQURjJ-4" value="" style="curved=1;endArrow=classic;html=1;exitX=0.371;exitY=0.382;exitDx=0;exitDy=0;exitPerimeter=0;shadow=0;fillColor=#d80073;strokeColor=#A50040;strokeWidth=3;" edge="1" parent="1">
          <mxGeometry width="50" height="50" relative="1" as="geometry">
            <mxPoint x="456.0160000000001" y="263.043" as="sourcePoint" />
            <mxPoint x="203.98" y="260" as="targetPoint" />
            <Array as="points">
              <mxPoint x="392.98" y="220" />
              <mxPoint x="342.98" y="230" />
              <mxPoint x="292.98" y="290" />
            </Array>
          </mxGeometry>
        </mxCell>
        <mxCell id="Ge-NIx9A7oF9qXeQURjJ-6" value="&lt;b style=&quot;font-size: 12px;&quot;&gt;test_webhook.py&lt;/b&gt;" style="edgeLabel;html=1;align=center;verticalAlign=middle;resizable=0;points=[];fontColor=#000000;labelBackgroundColor=none;fontSize=12;" vertex="1" connectable="0" parent="Ge-NIx9A7oF9qXeQURjJ-4">
          <mxGeometry x="-0.0459" y="6" relative="1" as="geometry">
            <mxPoint x="12" y="34" as="offset" />
          </mxGeometry>
        </mxCell>
        <mxCell id="Ge-NIx9A7oF9qXeQURjJ-3" value="" style="curved=1;endArrow=classic;html=1;exitX=0.371;exitY=0.382;exitDx=0;exitDy=0;exitPerimeter=0;fillColor=#008a00;strokeColor=#005700;strokeWidth=3;" edge="1" parent="1" source="6a7d8f32e03d9370-1">
          <mxGeometry width="50" height="50" relative="1" as="geometry">
            <mxPoint x="490" y="270" as="sourcePoint" />
            <mxPoint x="211" y="220" as="targetPoint" />
            <Array as="points">
              <mxPoint x="400" y="180" />
              <mxPoint x="350" y="190" />
              <mxPoint x="300" y="250" />
            </Array>
          </mxGeometry>
        </mxCell>
        <mxCell id="Ge-NIx9A7oF9qXeQURjJ-5" value="&lt;font style=&quot;font-size: 13px&quot;&gt;Curl&lt;/font&gt;" style="edgeLabel;html=1;align=center;verticalAlign=middle;resizable=0;points=[];labelBackgroundColor=none;fontStyle=1" vertex="1" connectable="0" parent="Ge-NIx9A7oF9qXeQURjJ-3">
          <mxGeometry x="0.7697" y="-1" relative="1" as="geometry">
            <mxPoint x="66" y="-20" as="offset" />
          </mxGeometry>
        </mxCell>
        <mxCell id="Ge-NIx9A7oF9qXeQURjJ-7" value="&lt;b&gt;Cisco DNAC sending Webhook notification&lt;/b&gt;" style="whiteSpace=wrap;html=1;fillColor=#dae8fc;fontSize=14;strokeColor=none;verticalAlign=top;" vertex="1" parent="1">
          <mxGeometry x="80" y="360" width="500" height="190" as="geometry" />
        </mxCell>
        <mxCell id="Ge-NIx9A7oF9qXeQURjJ-9" value="Flask Webhook Receiver&lt;br&gt;Ubuntu" style="verticalLabelPosition=top;aspect=fixed;html=1;verticalAlign=bottom;strokeColor=none;shape=mxgraph.citrix.cache_server;fillColor=#66B2FF;gradientColor=#0066CC;fontSize=14;labelPosition=center;align=center;" vertex="1" parent="1">
          <mxGeometry x="140" y="428.5" width="71" height="97.5" as="geometry" />
        </mxCell>
        <mxCell id="Ge-NIx9A7oF9qXeQURjJ-10" value="" style="curved=1;endArrow=classic;html=1;exitX=0.371;exitY=0.382;exitDx=0;exitDy=0;exitPerimeter=0;shadow=0;fillColor=#d80073;strokeWidth=3;strokeColor=#3333FF;" edge="1" parent="1">
          <mxGeometry width="50" height="50" relative="1" as="geometry">
            <mxPoint x="456.0160000000001" y="493.043" as="sourcePoint" />
            <mxPoint x="230" y="490" as="targetPoint" />
            <Array as="points">
              <mxPoint x="392.98" y="450" />
              <mxPoint x="342.98" y="460" />
              <mxPoint x="292.98" y="520" />
            </Array>
          </mxGeometry>
        </mxCell>
        <mxCell id="Ge-NIx9A7oF9qXeQURjJ-2" value="" style="points=[[0.015,0.015,0],[0.985,0.015,0],[0.985,0.985,0],[0.015,0.985,0],[0.25,0,0],[0.5,0,0],[0.75,0,0],[1,0.25,0],[1,0.5,0],[1,0.75,0],[0.75,1,0],[0.5,1,0],[0.25,1,0],[0,0.75,0],[0,0.5,0],[0,0.25,0]];verticalLabelPosition=bottom;html=1;verticalAlign=top;aspect=fixed;align=center;pointerEvents=1;shape=mxgraph.cisco19.rect;prIcon=cisco_dna_center;fillColor=#FAFAFA;strokeColor=#005073;" vertex="1" parent="1">
          <mxGeometry x="470" y="451" width="50" height="50" as="geometry" />
        </mxCell>
        <mxCell id="Ge-NIx9A7oF9qXeQURjJ-14" value="CISCO DNAC" style="text;strokeColor=none;fillColor=none;align=left;verticalAlign=top;spacingLeft=4;spacingRight=4;overflow=hidden;rotatable=0;points=[[0,0.5],[1,0.5]];portConstraint=eastwest;labelBackgroundColor=none;fontSize=12;fontColor=#000000;" vertex="1" parent="1">
          <mxGeometry x="447.5" y="501" width="95" height="26" as="geometry" />
        </mxCell>
      </root>
    </mxGraphModel>
  </diagram>
</mxfile>
